<?xml version="1.0" encoding="iso-8859-1"?>
<!-- Generator: Adobe Illustrator 19.0.0, SVG Export Plug-In . SVG Version: 6.00 Build 0)  -->
<svg version="1.1" id="Layer_1" xmlns="http://www.w3.org/2000/svg" xmlns:xlink="http://www.w3.org/1999/xlink" x="0px" y="0px"
	 viewBox="0 0 105.842 105.842" style="enable-background:new 0 0 105.842 105.842;" xml:space="preserve">
<g>
	<g>
		<g>
			<rect x="3.682" y="92.549" style="fill:#131112;" width="97.765" height="7.404"/>
			<rect y="98.066" style="fill:#232323;" width="105.842" height="7.404"/>
			<g>
				<rect x="9.583" y="44.492" style="fill:#EF4F28;" width="7.555" height="48.057"/>
				<rect x="31.387" y="44.492" style="fill:#EF4F28;" width="7.554" height="48.057"/>
				<rect x="65.355" y="44.492" style="fill:#EF4F28;" width="7.556" height="48.057"/>
				<rect x="87.158" y="44.492" style="fill:#EF4F28;" width="7.556" height="48.057"/>
			</g>
			<g>
				<rect x="85.6" y="87.176" style="fill:#DD3D12;" width="10.671" height="5.373"/>
				<rect x="63.796" y="87.176" style="fill:#DD3D12;" width="10.672" height="5.373"/>
				<rect x="29.828" y="87.176" style="fill:#DD3D12;" width="10.671" height="5.373"/>
				<rect x="8.024" y="87.176" style="fill:#DD3D12;" width="10.671" height="5.373"/>
			</g>
			<g>
				<rect x="85.6" y="44.728" style="fill:#DD3D12;" width="10.671" height="3.956"/>
				<rect x="63.796" y="44.728" style="fill:#DD3D12;" width="10.672" height="3.956"/>
				<rect x="29.828" y="44.728" style="fill:#DD3D12;" width="10.671" height="3.956"/>
				<rect x="8.024" y="44.728" style="fill:#DD3D12;" width="10.671" height="3.956"/>
			</g>
			<polygon style="fill:#EF4F28;" points="5.411,42.314 52.202,13.83 98.994,42.314 			"/>
			<rect x="5.411" y="42.314" style="fill:#DD3D12;" width="93.583" height="4.393"/>
		</g>
		<polygon style="fill:#00999C;" points="20.065,39.678 52.202,20.115 85.149,39.678 		"/>
	</g>
	<g>
		<path style="fill:#EF4F28;" d="M51.187,15.386c-0.708-0.098-1.372-0.292-1.994-0.581c-0.623-0.291-1.152-0.649-1.587-1.078
			l0.689-1.025c0.061-0.091,0.141-0.163,0.24-0.221c0.099-0.058,0.207-0.087,0.321-0.087c0.133,0,0.275,0.047,0.427,0.14
			c0.15,0.094,0.323,0.205,0.517,0.332c0.193,0.127,0.414,0.254,0.661,0.38c0.248,0.127,0.542,0.222,0.88,0.282l0.336-4.053
			c-0.429-0.127-0.854-0.27-1.274-0.431c-0.42-0.159-0.798-0.375-1.133-0.644s-0.606-0.608-0.81-1.02
			c-0.207-0.411-0.309-0.928-0.309-1.55c0-0.46,0.091-0.908,0.272-1.347c0.181-0.438,0.449-0.829,0.802-1.173
			c0.354-0.344,0.787-0.628,1.301-0.852c0.514-0.225,1.103-0.35,1.768-0.38l0.1-1.143c0.012-0.146,0.072-0.275,0.181-0.391
			c0.108-0.115,0.25-0.172,0.425-0.172h0.825L53.671,2.15c0.646,0.102,1.202,0.285,1.668,0.547c0.465,0.264,0.867,0.558,1.206,0.884
			l-0.544,0.826c-0.078,0.121-0.16,0.211-0.245,0.273c-0.084,0.06-0.188,0.09-0.308,0.09c-0.09,0-0.2-0.029-0.326-0.086
			c-0.127-0.057-0.269-0.128-0.426-0.208c-0.157-0.081-0.334-0.166-0.53-0.249c-0.197-0.086-0.412-0.156-0.648-0.209l-0.317,3.753
			c0.435,0.132,0.867,0.279,1.296,0.439c0.43,0.16,0.815,0.367,1.156,0.62c0.341,0.255,0.618,0.571,0.83,0.949
			c0.211,0.378,0.317,0.851,0.317,1.419c0,0.562-0.093,1.089-0.281,1.582c-0.188,0.491-0.462,0.928-0.825,1.305
			c-0.362,0.378-0.807,0.685-1.333,0.925c-0.526,0.238-1.127,0.378-1.805,0.421l-0.108,1.332c-0.006,0.139-0.065,0.268-0.177,0.386
			c-0.112,0.117-0.252,0.177-0.421,0.177h-0.826L51.187,15.386z M50.262,5.613c0,0.229,0.039,0.431,0.118,0.608
			c0.079,0.174,0.188,0.33,0.331,0.466c0.142,0.136,0.312,0.257,0.507,0.362c0.197,0.106,0.41,0.201,0.639,0.286l0.281-3.355
			c-0.339,0.043-0.625,0.114-0.862,0.213c-0.235,0.1-0.429,0.222-0.58,0.368c-0.151,0.145-0.261,0.307-0.331,0.484
			C50.296,5.224,50.262,5.412,50.262,5.613z M54.668,11.542c0-0.23-0.041-0.431-0.123-0.604c-0.082-0.172-0.197-0.325-0.344-0.458
			c-0.149-0.133-0.323-0.248-0.521-0.345c-0.2-0.096-0.417-0.184-0.653-0.263l-0.308,3.681c0.641-0.083,1.126-0.3,1.455-0.649
			C54.503,12.558,54.668,12.104,54.668,11.542z"/>
	</g>
</g>
<g>
</g>
<g>
</g>
<g>
</g>
<g>
</g>
<g>
</g>
<g>
</g>
<g>
</g>
<g>
</g>
<g>
</g>
<g>
</g>
<g>
</g>
<g>
</g>
<g>
</g>
<g>
</g>
<g>
</g>
</svg>
