<?xml version="1.0" encoding="iso-8859-1"?>
<!-- Generator: Adobe Illustrator 19.0.0, SVG Export Plug-In . SVG Version: 6.00 Build 0)  -->
<svg version="1.1" id="Layer_1" xmlns="http://www.w3.org/2000/svg" xmlns:xlink="http://www.w3.org/1999/xlink" x="0px" y="0px"
	 viewBox="0 0 511.977 511.977" style="enable-background:new 0 0 511.977 511.977;" xml:space="preserve">
<path style="fill:#F44336;" d="M255.996,68.214c103.54,0,187.776,84.236,187.776,187.776s-84.236,187.776-187.776,187.776
	S68.22,359.53,68.22,255.991S152.456,68.214,255.996,68.214 M255.996,30.659c-124.449,0-225.331,100.883-225.331,225.331
	s100.883,225.331,225.331,225.331s225.331-100.883,225.331-225.331S380.435,30.659,255.996,30.659L255.996,30.659z"/>
<rect x="-43.561" y="251.276" transform="matrix(-0.8462 -0.5328 0.5328 -0.8462 336.2275 608.975)" style="fill:#263238;" width="599.098" height="9.388"/>
<path style="fill:#FFC107;" d="M90.19,103.46c2.112-2.3,4.244-4.582,6.469-6.807c87.86-87.86,230.815-87.86,318.666,0
	c31.171,31.171,51.225,69.299,60.276,109.417l18.393-4.178c-9.83-43.433-31.584-84.706-65.393-118.515
	c-95.334-95.334-249.893-95.334-345.227,0c-2.216,2.225-4.338,4.516-6.46,6.807L90.19,103.46z"/>
<g>
	<path style="fill:#01579B;" d="M375.488,375.482c-65.891,65.891-173.111,65.891-239.002,0
		c-23.378-23.378-38.297-51.995-45.085-82.096l-18.355,4.169c7.558,33.405,24.157,65.187,50.164,91.203
		c73.336,73.336,192.227,73.336,265.553,0c2.244-2.244,4.197-4.647,6.309-6.976l-13.276-13.276
		C379.703,370.844,377.732,373.248,375.488,375.482z"/>
	<path style="fill:#01579B;" d="M312.329,453.156H30.665c-7.333-7.333-11.445-11.445-18.778-18.778V265.379
		c7.333-7.333,11.445-11.445,18.778-18.778h281.664c7.333,7.333,11.445,11.445,18.778,18.778v168.999
		C323.774,441.711,319.662,445.823,312.329,453.156z"/>
</g>
<rect x="11.887" y="284.185" style="fill:#263238;" width="319.22" height="37.555"/>
<rect x="105.775" y="340.518" style="fill:#FFECB3;" width="131.443" height="28.166"/>
<path style="fill:#FFC107;" d="M481.328,265.379H199.663c-7.333-7.333-11.445-11.445-18.778-18.778V77.603
	c7.333-7.333,11.445-11.445,18.778-18.778h281.664c7.333,7.333,11.445,11.445,18.778,18.778v168.999
	C492.773,253.935,488.66,258.047,481.328,265.379z"/>
<rect x="180.886" y="96.381" style="fill:#263238;" width="319.22" height="37.555"/>
<rect x="274.802" y="152.714" style="fill:#FFECB3;" width="131.443" height="28.166"/>
<path style="fill:#FFC107;" d="M481.084,246.602c0.131,3.117,0.235,6.244,0.235,9.389c0,124.252-101.08,225.331-225.331,225.331
	c-44.09,0-85.222-12.778-119.998-34.748l-10.055,15.961c37.659,23.763,82.227,37.565,130.044,37.565
	c134.814,0,244.109-109.295,244.109-244.109c0-3.145-0.122-6.272-0.235-9.389L481.084,246.602L481.084,246.602z"/>
<path style="fill:#01579B;" d="M86.998,255.991c0-93.184,75.815-168.999,168.999-168.999c33.067,0,63.844,9.689,89.926,26.167
	l10.027-15.933c-28.964-18.28-63.177-29.011-99.963-29.011c-103.709,0-187.776,84.067-187.776,187.776
	c0,3.173,0.319,6.262,0.469,9.389h18.778C87.298,262.253,86.998,259.155,86.998,255.991z"/>
<g>
</g>
<g>
</g>
<g>
</g>
<g>
</g>
<g>
</g>
<g>
</g>
<g>
</g>
<g>
</g>
<g>
</g>
<g>
</g>
<g>
</g>
<g>
</g>
<g>
</g>
<g>
</g>
<g>
</g>
</svg>
