<?xml version="1.0" encoding="iso-8859-1"?>
<!-- Generator: Adobe Illustrator 19.0.0, SVG Export Plug-In . SVG Version: 6.00 Build 0)  -->
<svg version="1.1" id="Layer_1" xmlns="http://www.w3.org/2000/svg" xmlns:xlink="http://www.w3.org/1999/xlink" x="0px" y="0px"
	 viewBox="0 0 512 512" style="enable-background:new 0 0 512 512;" xml:space="preserve">
<path style="fill:#707487;" d="M282.483,123.586h-52.966l-40.894,13.631c-7.209,2.403-12.072,9.15-12.072,16.749v49.068h158.897
	v-49.068c0-7.599-4.863-14.346-12.072-16.749L282.483,123.586z"/>
<path style="fill:#D7DEED;" d="M299.564,129.28l-17.081-5.694h-52.966l-17.081,5.694c2.819,21.657,21.138,38.444,43.564,38.444
	S296.745,150.937,299.564,129.28z"/>
<path style="fill:#5B5D6E;" d="M264.828,132.414h-17.655v34.366c2.856,0.585,5.793,0.945,8.828,0.945s5.972-0.36,8.828-0.945
	V132.414z"/>
<rect x="229.517" y="97.103" style="fill:#FAD7A5;" width="52.966" height="35.31"/>
<circle style="fill:#5B5D6E;" cx="256" cy="8.828" r="8.828"/>
<g>
	<rect x="167.724" y="229.517" style="fill:#AA6955;" width="176.552" height="256"/>
	<path style="fill:#AA6955;" d="M353.103,238.345H158.897c-4.875,0-8.828-3.953-8.828-8.828v-17.655
		c0-4.875,3.953-8.828,8.828-8.828h194.207c4.875,0,8.828,3.953,8.828,8.828v17.655
		C361.931,234.392,357.978,238.345,353.103,238.345z"/>
	<path style="fill:#AA6955;" d="M353.103,512H158.897c-4.875,0-8.828-3.953-8.828-8.828v-17.655c0-4.875,3.953-8.828,8.828-8.828
		h194.207c4.875,0,8.828,3.953,8.828,8.828v17.655C361.931,508.047,357.978,512,353.103,512z"/>
</g>
<path style="fill:#707487;" d="M308.966,26.483H203.034c-4.875,0-8.828-3.953-8.828-8.828s3.953-8.828,8.828-8.828h105.931
	c4.875,0,8.828,3.953,8.828,8.828S313.841,26.483,308.966,26.483z"/>
<g>
	<path style="fill:#B9785F;" d="M353.103,476.69H158.897v-8.828c0-4.875,3.953-8.828,8.828-8.828h176.552
		c4.875,0,8.828,3.953,8.828,8.828V476.69z"/>
	<path style="fill:#B9785F;" d="M344.276,256H167.724c-4.875,0-8.828-3.953-8.828-8.828v-8.828h194.207v8.828
		C353.103,252.047,349.151,256,344.276,256z"/>
</g>
<path style="fill:#FFD782;" d="M282.483,300.138h-52.966c-4.875,0-8.828-3.953-8.828-8.828v-8.828c0-4.875,3.953-8.828,8.828-8.828
	h52.966c4.875,0,8.828,3.953,8.828,8.828v8.828C291.31,296.185,287.358,300.138,282.483,300.138z"/>
<path style="fill:#FFE1B4;" d="M220.69,52.966v34.689c0,5.903,2.723,11.415,7.257,14.69l13.082,9.449
	c2.677,1.933,5.823,2.965,9.039,2.965h11.861c3.218,0,6.362-1.032,9.039-2.965l13.082-9.449c4.534-3.274,7.257-8.787,7.257-14.69
	V52.966H220.69z"/>
<path style="fill:#5B5D6E;" d="M291.31,26.483H220.69v26.483l31.028,7.757c2.812,0.703,5.752,0.703,8.564,0l31.029-7.757V26.483z"/>
<g>
	<polygon style="fill:#E4EAF6;" points="220.69,132.414 247.172,150.069 256,132.414 229.517,114.759 	"/>
	<polygon style="fill:#E4EAF6;" points="256,132.414 264.828,150.069 291.31,132.414 282.483,114.759 	"/>
</g>
<g>
	<path style="fill:#5B5D6E;" d="M308.966,203.034h26.483v-49.068c0-3.558-1.146-6.881-3.019-9.706l-18.293,18.293
		c-3.311,3.311-5.171,7.801-5.171,12.484V203.034z"/>
	<path style="fill:#5B5D6E;" d="M203.034,203.034h-26.483v-49.068c0-3.558,1.146-6.881,3.019-9.706l18.293,18.293
		c3.311,3.311,5.171,7.801,5.171,12.484V203.034z"/>
</g>
<g>
</g>
<g>
</g>
<g>
</g>
<g>
</g>
<g>
</g>
<g>
</g>
<g>
</g>
<g>
</g>
<g>
</g>
<g>
</g>
<g>
</g>
<g>
</g>
<g>
</g>
<g>
</g>
<g>
</g>
</svg>
