<?xml version="1.0" encoding="iso-8859-1"?>
<!-- Generator: Adobe Illustrator 19.0.0, SVG Export Plug-In . SVG Version: 6.00 Build 0)  -->
<svg version="1.1" id="Layer_1" xmlns="http://www.w3.org/2000/svg" xmlns:xlink="http://www.w3.org/1999/xlink" x="0px" y="0px"
	 viewBox="0 0 512.005 512.005" style="enable-background:new 0 0 512.005 512.005;" xml:space="preserve">
<g>
	<path style="fill:#FEE187;" d="M195.148,173.109c0,7.766,0.56,15.396,1.625,22.857c18.18-8.038,38.199-12.495,59.228-12.495
		s41.048,4.457,59.228,12.495c1.065-7.461,1.625-15.091,1.625-22.857c0-51.139-23.927-96.505-60.853-124.829
		C219.074,76.606,195.148,121.971,195.148,173.109z"/>
	<path style="fill:#FEE187;" d="M255.999,297.94c-31.318-24.024-53.279-60.307-59.228-101.973
		c-47.204,20.871-81.979,65.926-89.71,120.075c18.18,8.038,38.199,12.495,59.228,12.495
		C199.904,328.536,230.943,317.16,255.999,297.94z"/>
	<path style="fill:#FEE187;" d="M315.228,195.967c-5.949,41.666-27.91,77.949-59.228,101.974
		c25.056,19.221,56.096,30.596,89.71,30.596c21.03,0,41.048-4.457,59.228-12.495C397.206,261.893,362.431,216.837,315.228,195.967z"
		/>
	<path style="fill:#FEE187;" d="M196.772,195.967c5.949,41.666,27.91,77.949,59.228,101.974
		c31.318-24.024,53.279-60.307,59.228-101.973c-18.18-8.038-38.199-12.495-59.228-12.495S214.951,187.929,196.772,195.967z"/>
</g>
<path style="fill:#FFC61B;" d="M345.709,1.957c-36.086,0-70.416,11.704-99.281,33.845c-41.959,32.185-67.007,83.515-67.007,137.308
	c0,2.178,0.046,4.359,0.126,6.544c0.027,0.716,0.079,1.43,0.115,2.147c0.072,1.464,0.145,2.927,0.252,4.391
	c0.013,0.16,0.016,0.322,0.028,0.483c-1.304,0.692-2.596,1.404-3.88,2.131c-0.179,0.102-0.355,0.209-0.533,0.311
	c-1.25,0.716-2.49,1.445-3.719,2.192c-0.453,0.275-0.9,0.557-1.349,0.837c-0.964,0.598-1.922,1.205-2.872,1.821
	c-0.477,0.31-0.951,0.621-1.425,0.936c-0.967,0.643-1.925,1.297-2.878,1.96c-0.403,0.28-0.808,0.557-1.209,0.84
	c-2.685,1.903-5.311,3.884-7.876,5.94c-0.357,0.286-0.708,0.579-1.062,0.867c-0.933,0.76-1.859,1.529-2.774,2.309
	c-0.399,0.341-0.797,0.684-1.195,1.029c-0.9,0.782-1.79,1.573-2.674,2.373c-0.348,0.315-0.697,0.627-1.043,0.945
	c-1.132,1.043-2.254,2.1-3.358,3.174c-0.071,0.069-0.143,0.135-0.214,0.204c-1.2,1.172-2.379,2.362-3.543,3.568
	c-0.255,0.264-0.505,0.533-0.758,0.8c-0.889,0.933-1.768,1.873-2.636,2.825c-0.33,0.363-0.659,0.73-0.988,1.096
	c-0.81,0.904-1.61,1.818-2.401,2.74c-0.3,0.351-0.602,0.698-0.901,1.051c-0.934,1.106-1.854,2.224-2.76,3.353
	c-0.126,0.156-0.255,0.31-0.379,0.466c-1.052,1.321-2.082,2.658-3.097,4.009c-0.171,0.23-0.338,0.462-0.508,0.692
	c-0.815,1.098-1.617,2.205-2.406,3.323c-0.275,0.388-0.544,0.78-0.816,1.172c-0.694,1-1.376,2.007-2.049,3.023
	c-0.264,0.399-0.53,0.799-0.793,1.2c-0.739,1.135-1.464,2.28-2.177,3.433c-0.16,0.258-0.324,0.513-0.483,0.772
	c-0.881,1.441-1.741,2.894-2.579,4.359c-0.107,0.187-0.209,0.379-0.316,0.568c-0.708,1.249-1.401,2.508-2.081,3.776
	c-0.228,0.426-0.45,0.856-0.673,1.283c-0.557,1.065-1.104,2.134-1.64,3.21c-0.23,0.459-0.458,0.92-0.683,1.382
	c-0.554,1.137-1.093,2.284-1.623,3.435c-0.17,0.368-0.344,0.734-0.511,1.104c-0.692,1.532-1.365,3.071-2.013,4.624
	c-0.052,0.123-0.099,0.247-0.149,0.37c-0.582,1.406-1.145,2.821-1.692,4.243c-0.181,0.472-0.355,0.948-0.532,1.422
	c-0.41,1.099-0.813,2.202-1.202,3.31c-0.186,0.53-0.371,1.062-0.552,1.595c-0.381,1.121-0.749,2.247-1.107,3.378
	c-0.151,0.477-0.307,0.95-0.455,1.428c-0.491,1.592-0.962,3.189-1.408,4.798c-39.732-25.13-64.519-70.022-64.519-119.24
	c0-77.031,60.488-139.7,134.836-139.7c8.684,0,15.727-7.041,15.727-15.727s-7.042-15.727-15.727-15.727
	C74.598,1.957,0,78.737,0,173.109c0,68.517,39.527,130.267,100.701,157.314c20.767,9.183,42.833,13.838,65.588,13.838
	c2.142,0,4.276-0.047,6.404-0.131c0.697-0.027,1.39-0.079,2.085-0.113c1.431-0.074,2.862-0.151,4.286-0.263
	c0.819-0.064,1.636-0.148,2.453-0.223c1.296-0.121,2.592-0.247,3.883-0.396c0.857-0.101,1.713-0.215,2.568-0.329
	c1.247-0.167,2.493-0.343,3.735-0.538c0.862-0.135,1.722-0.278,2.581-0.426c1.238-0.215,2.472-0.447,3.704-0.69
	c0.84-0.167,1.68-0.333,2.516-0.513c1.263-0.27,2.519-0.565,3.774-0.865c0.789-0.19,1.581-0.373,2.367-0.574
	c1.354-0.346,2.7-0.723,4.045-1.104c0.673-0.192,1.349-0.37,2.021-0.569c1.765-0.525,3.516-1.087,5.262-1.673
	c0.241-0.08,0.484-0.151,0.723-0.233c1.993-0.679,3.971-1.403,5.937-2.161c0.543-0.209,1.077-0.44,1.618-0.656
	c1.411-0.561,2.818-1.131,4.213-1.733c0.705-0.303,1.4-0.628,2.1-0.94c1.224-0.549,2.444-1.102,3.655-1.683
	c0.75-0.36,1.496-0.733,2.241-1.104c1.151-0.572,2.298-1.154,3.436-1.755c0.758-0.401,1.513-0.808,2.268-1.222
	c1.118-0.613,2.232-1.241,3.339-1.883c0.744-0.429,1.485-0.862,2.224-1.304c1.118-0.672,2.227-1.362,3.332-2.06
	c0.703-0.443,1.408-0.884,2.104-1.34c0.278-0.181,0.561-0.351,0.838-0.533c0.277,0.184,0.56,0.352,0.838,0.533
	c0.697,0.456,1.403,0.895,2.104,1.34c1.106,0.698,2.214,1.39,3.332,2.06c0.738,0.442,1.48,0.874,2.224,1.304
	c1.107,0.64,2.219,1.268,3.339,1.883c0.753,0.412,1.508,0.821,2.268,1.222c1.139,0.601,2.285,1.183,3.436,1.755
	c0.745,0.371,1.491,0.745,2.241,1.104c1.211,0.58,2.431,1.134,3.655,1.683c0.7,0.315,1.395,0.637,2.1,0.94
	c1.395,0.602,2.802,1.172,4.213,1.733c0.541,0.215,1.076,0.445,1.618,0.656c1.966,0.758,3.944,1.481,5.937,2.161
	c0.241,0.082,0.484,0.153,0.723,0.233c1.746,0.587,3.498,1.148,5.262,1.673c0.67,0.2,1.348,0.377,2.021,0.569
	c1.345,0.382,2.689,0.758,4.045,1.104c0.786,0.201,1.577,0.384,2.367,0.574c1.255,0.3,2.512,0.594,3.774,0.865
	c0.837,0.179,1.676,0.346,2.516,0.513c1.231,0.244,2.466,0.475,3.704,0.69c0.859,0.149,1.719,0.293,2.581,0.426
	c1.241,0.195,2.486,0.371,3.735,0.538c0.856,0.113,1.71,0.228,2.568,0.329c1.291,0.151,2.585,0.277,3.883,0.396
	c0.818,0.076,1.632,0.16,2.453,0.223c1.425,0.11,2.854,0.189,4.286,0.263c0.695,0.036,1.389,0.086,2.085,0.113
	c2.128,0.082,4.262,0.131,6.404,0.131c1.73,0,3.455-0.036,5.177-0.09c0.499-0.016,0.996-0.038,1.494-0.058
	c1.305-0.052,2.607-0.121,3.906-0.204c0.469-0.03,0.939-0.057,1.408-0.091c1.706-0.124,3.408-0.27,5.105-0.447
	c0.209-0.022,0.415-0.05,0.624-0.072c1.5-0.164,2.996-0.349,4.488-0.554c0.502-0.069,1.003-0.142,1.505-0.215
	c1.304-0.192,2.604-0.399,3.903-0.623c0.418-0.072,0.838-0.138,1.255-0.214c1.669-0.3,3.332-0.624,4.99-0.978
	c0.33-0.071,0.657-0.149,0.988-0.222c1.349-0.296,2.694-0.61,4.035-0.94c0.506-0.126,1.013-0.253,1.518-0.384
	c1.304-0.335,2.604-0.689,3.9-1.057c0.275-0.079,0.552-0.145,0.827-0.225c0.002,0.337,0.003,0.673,0.003,1.01
	c0,77.031-60.488,139.7-134.836,139.7c-55.599,0-104.798-34.581-125.343-88.101c-3.112-8.109-12.209-12.157-20.319-9.044
	c-8.109,3.112-12.158,12.21-9.046,20.317c12.1,31.521,32.847,58.433,59.993,77.824c27.893,19.924,60.645,30.456,94.716,30.456
	c91.693,0,166.289-76.779,166.289-171.154c0-8.362-0.601-16.801-1.783-25.081c0-0.002,0-0.003-0.002-0.005
	c-0.252-1.76-0.533-3.512-0.837-5.259c-0.099-0.574-0.217-1.142-0.324-1.713c-0.217-1.172-0.434-2.343-0.675-3.509
	c-0.14-0.679-0.297-1.352-0.447-2.029c-0.23-1.052-0.461-2.104-0.711-3.15c-0.17-0.711-0.355-1.419-0.535-2.126
	c-0.253-1.003-0.508-2.007-0.778-3.004c-0.197-0.725-0.407-1.445-0.613-2.169c-0.277-0.969-0.557-1.938-0.851-2.902
	c-0.223-0.731-0.456-1.458-0.689-2.186c-0.303-0.948-0.61-1.895-0.929-2.837c-0.245-0.723-0.497-1.442-0.752-2.161
	c-0.332-0.939-0.672-1.876-1.019-2.809c-0.264-0.711-0.535-1.419-0.808-2.125c-0.362-0.933-0.734-1.862-1.112-2.787
	c-0.283-0.692-0.566-1.384-0.857-2.073c-0.395-0.931-0.8-1.857-1.211-2.78c-0.299-0.672-0.596-1.345-0.903-2.013
	c-0.429-0.936-0.874-1.865-1.319-2.793c-0.308-0.64-0.612-1.282-0.928-1.917c-0.477-0.959-0.969-1.909-1.461-2.859
	c-0.308-0.593-0.609-1.187-0.923-1.777c-0.541-1.014-1.101-2.016-1.662-3.018c-0.286-0.511-0.565-1.029-0.856-1.537
	c-0.673-1.175-1.368-2.337-2.068-3.494c-0.197-0.324-0.384-0.654-0.582-0.977c-1.824-2.975-3.738-5.893-5.736-8.747
	c-0.275-0.393-0.561-0.777-0.84-1.167c-0.725-1.019-1.453-2.035-2.2-3.038c-0.365-0.489-0.741-0.967-1.109-1.453
	c-0.678-0.89-1.356-1.779-2.051-2.655c-0.415-0.524-0.841-1.04-1.264-1.56c-0.668-0.823-1.337-1.643-2.019-2.453
	c-0.45-0.535-0.909-1.06-1.365-1.588c-0.672-0.778-1.348-1.554-2.033-2.32c-0.478-0.535-0.964-1.063-1.45-1.592
	c-0.684-0.744-1.373-1.485-2.07-2.217c-0.502-0.527-1.007-1.049-1.514-1.568c-0.7-0.717-1.406-1.428-2.117-2.131
	c-0.521-0.516-1.044-1.027-1.573-1.535c-0.719-0.694-1.445-1.378-2.177-2.059c-0.536-0.499-1.073-0.995-1.615-1.486
	c-0.742-0.673-1.496-1.337-2.25-1.997c-0.547-0.478-1.091-0.956-1.645-1.428c-0.774-0.659-1.557-1.304-2.342-1.949
	c-0.55-0.451-1.098-0.907-1.654-1.351c-0.815-0.651-1.64-1.288-2.468-1.923c-0.543-0.418-1.08-0.841-1.628-1.252
	c-0.882-0.662-1.779-1.307-2.674-1.95c-0.506-0.365-1.007-0.738-1.516-1.095c-1.054-0.741-2.123-1.459-3.196-2.177
	c-0.365-0.244-0.723-0.497-1.09-0.738c-1.447-0.95-2.908-1.878-4.385-2.782c-0.308-0.189-0.624-0.366-0.936-0.554
	c-1.168-0.705-2.34-1.403-3.527-2.079c-0.561-0.319-1.132-0.623-1.697-0.936c-0.819-0.455-1.634-0.917-2.463-1.357
	c0.013-0.16,0.016-0.322,0.028-0.483c0.109-1.467,0.181-2.936,0.253-4.405c0.035-0.711,0.086-1.419,0.113-2.129
	c0.082-2.184,0.126-4.369,0.126-6.547c0-1.576-0.025-3.15-0.068-4.721c-0.014-0.514-0.039-1.027-0.058-1.54
	c-0.038-1.058-0.08-2.117-0.138-3.172c-0.033-0.604-0.074-1.206-0.113-1.809c-0.063-0.972-0.132-1.944-0.211-2.914
	c-0.05-0.623-0.105-1.246-0.164-1.868c-0.088-0.956-0.187-1.912-0.291-2.867c-0.066-0.613-0.134-1.228-0.208-1.84
	c-0.12-0.995-0.253-1.989-0.388-2.982c-0.077-0.557-0.148-1.113-0.23-1.67c-0.179-1.216-0.376-2.427-0.58-3.638
	c-0.055-0.326-0.102-0.651-0.159-0.975c-0.266-1.521-0.554-3.037-0.859-4.547c-0.096-0.472-0.203-0.94-0.302-1.411
	c-0.22-1.047-0.445-2.093-0.684-3.134c-0.137-0.593-0.281-1.183-0.425-1.774c-0.222-0.918-0.447-1.837-0.683-2.751
	c-0.16-0.623-0.327-1.246-0.494-1.867c-0.239-0.887-0.486-1.771-0.738-2.653c-0.178-0.62-0.357-1.239-0.541-1.856
	c-0.269-0.9-0.547-1.794-0.83-2.689c-0.184-0.583-0.365-1.167-0.555-1.749c-0.327-0.999-0.67-1.994-1.016-2.987
	c-0.162-0.466-0.316-0.934-0.483-1.398c-0.51-1.428-1.038-2.851-1.584-4.264c-0.156-0.403-0.322-0.8-0.48-1.202
	c-0.407-1.032-0.818-2.06-1.246-3.082c-0.233-0.558-0.477-1.113-0.714-1.669c-0.37-0.86-0.741-1.719-1.124-2.571
	c-0.266-0.593-0.538-1.181-0.81-1.771c-0.377-0.818-0.76-1.631-1.15-2.442c-0.283-0.59-0.569-1.178-0.859-1.763
	c-0.404-0.816-0.815-1.626-1.231-2.436c-0.289-0.563-0.577-1.128-0.873-1.687c-0.461-0.873-0.934-1.738-1.409-2.603
	c-0.264-0.48-0.522-0.962-0.789-1.441c-0.728-1.296-1.472-2.584-2.232-3.859c-0.131-0.217-0.264-0.432-0.395-0.65
	c-0.676-1.121-1.362-2.238-2.063-3.345c-0.296-0.466-0.601-0.926-0.9-1.389c-0.536-0.83-1.076-1.658-1.626-2.477
	c-0.343-0.51-0.692-1.016-1.04-1.521c-0.528-0.767-1.06-1.533-1.599-2.293c-0.365-0.511-0.731-1.022-1.101-1.529
	c-0.549-0.755-1.106-1.505-1.669-2.25c-0.368-0.488-0.734-0.977-1.107-1.459c-0.609-0.791-1.228-1.573-1.851-2.353
	c-0.337-0.421-0.667-0.845-1.008-1.263c-0.824-1.011-1.661-2.013-2.508-3.005c-0.149-0.175-0.293-0.352-0.442-0.525
	c-1.005-1.168-2.029-2.323-3.065-3.463c-0.286-0.315-0.579-0.621-0.868-0.934c-0.76-0.824-1.524-1.643-2.301-2.452
	c-0.376-0.39-0.756-0.775-1.134-1.162c-0.453-0.462-0.9-0.933-1.359-1.39c19.52-10.93,41.283-16.634,63.887-16.634
	c74.348,0,134.836,62.669,134.836,139.7c0,27.146-7.519,53.46-21.742,76.097c-4.62,7.354-2.406,17.062,4.948,21.684
	c7.355,4.621,17.063,2.406,21.682-4.949c17.38-27.655,26.566-59.757,26.566-92.83C512,78.737,437.402,1.957,345.709,1.957z
	 M210.93,169.115c0.011-0.437,0.035-0.871,0.049-1.308c0.031-0.889,0.064-1.779,0.112-2.664c0.028-0.524,0.066-1.043,0.099-1.565
	c0.05-0.797,0.104-1.593,0.167-2.387c0.044-0.552,0.096-1.101,0.146-1.651c0.069-0.764,0.143-1.527,0.225-2.287
	c0.06-0.558,0.124-1.115,0.192-1.672c0.09-0.749,0.184-1.496,0.283-2.241c0.075-0.56,0.153-1.118,0.234-1.675
	c0.109-0.742,0.225-1.481,0.344-2.221c0.09-0.552,0.179-1.104,0.275-1.653c0.131-0.75,0.27-1.496,0.414-2.243
	c0.101-0.53,0.2-1.062,0.307-1.59c0.159-0.786,0.33-1.57,0.503-2.351c0.105-0.481,0.206-0.964,0.318-1.444
	c0.212-0.92,0.439-1.835,0.67-2.747c0.085-0.337,0.162-0.676,0.248-1.011c0.321-1.238,0.659-2.468,1.011-3.693
	c0.107-0.373,0.225-0.741,0.335-1.112c0.255-0.857,0.511-1.716,0.783-2.567c0.156-0.489,0.322-0.975,0.483-1.463
	c0.241-0.728,0.481-1.456,0.733-2.18c0.181-0.521,0.37-1.036,0.557-1.554c0.248-0.687,0.499-1.373,0.756-2.055
	c0.2-0.528,0.407-1.054,0.613-1.579c0.261-0.664,0.525-1.326,0.797-1.986c0.217-0.528,0.439-1.057,0.662-1.584
	c0.277-0.651,0.558-1.297,0.845-1.944c0.233-0.524,0.466-1.047,0.705-1.568c0.296-0.646,0.599-1.288,0.904-1.93
	c0.244-0.51,0.484-1.019,0.733-1.525c0.322-0.656,0.656-1.308,0.989-1.958c0.247-0.481,0.489-0.966,0.741-1.444
	c0.371-0.705,0.753-1.4,1.135-2.096c0.228-0.417,0.451-0.837,0.684-1.252c0.605-1.077,1.225-2.147,1.859-3.208
	c0.138-0.233,0.285-0.461,0.426-0.694c0.525-0.868,1.057-1.733,1.603-2.59c0.266-0.417,0.541-0.829,0.812-1.244
	c0.423-0.651,0.846-1.301,1.282-1.944c0.307-0.455,0.623-0.903,0.934-1.352c0.412-0.594,0.824-1.189,1.246-1.777
	c0.332-0.464,0.67-0.922,1.008-1.381c0.418-0.569,0.84-1.137,1.268-1.7c0.348-0.458,0.7-0.914,1.054-1.367
	c0.432-0.555,0.87-1.107,1.31-1.656c0.362-0.451,0.727-0.9,1.096-1.346c0.448-0.544,0.904-1.084,1.362-1.621
	c0.373-0.437,0.744-0.874,1.123-1.308c0.477-0.547,0.962-1.087,1.448-1.626c0.37-0.41,0.738-0.824,1.113-1.231
	c0.525-0.569,1.063-1.132,1.599-1.694c0.349-0.366,0.695-0.738,1.049-1.099c0.659-0.675,1.329-1.34,2.004-2.002
	c0.244-0.239,0.48-0.484,0.725-0.722c0.887-0.86,1.788-1.708,2.7-2.546c0.912,0.838,1.813,1.686,2.7,2.546
	c0.245,0.237,0.483,0.483,0.725,0.722c0.673,0.662,1.345,1.327,2.004,2.002c0.354,0.363,0.698,0.733,1.049,1.099
	c0.536,0.561,1.073,1.124,1.599,1.694c0.376,0.407,0.744,0.819,1.113,1.231c0.486,0.539,0.972,1.08,1.448,1.626
	c0.377,0.432,0.75,0.87,1.123,1.308c0.458,0.538,0.912,1.077,1.362,1.621c0.368,0.447,0.733,0.895,1.096,1.346
	c0.442,0.549,0.878,1.101,1.31,1.656c0.354,0.455,0.706,0.909,1.054,1.367c0.428,0.563,0.849,1.131,1.268,1.7
	c0.338,0.459,0.676,0.917,1.008,1.381c0.421,0.588,0.834,1.183,1.246,1.777c0.311,0.45,0.628,0.9,0.934,1.352
	c0.434,0.643,0.857,1.294,1.282,1.944c0.27,0.415,0.546,0.826,0.811,1.244c0.546,0.857,1.076,1.722,1.603,2.59
	c0.14,0.231,0.286,0.461,0.426,0.694c0.634,1.062,1.253,2.131,1.859,3.208c0.233,0.415,0.454,0.835,0.684,1.252
	c0.382,0.697,0.764,1.393,1.135,2.096c0.252,0.478,0.494,0.962,0.741,1.444c0.333,0.651,0.665,1.302,0.989,1.958
	c0.248,0.506,0.491,1.016,0.733,1.525c0.305,0.642,0.609,1.283,0.904,1.93c0.239,0.521,0.472,1.044,0.705,1.568
	c0.286,0.646,0.568,1.294,0.845,1.944c0.223,0.527,0.445,1.055,0.662,1.584c0.27,0.659,0.536,1.323,0.797,1.986
	c0.206,0.525,0.412,1.051,0.613,1.579c0.259,0.683,0.508,1.368,0.756,2.055c0.187,0.517,0.376,1.033,0.557,1.554
	c0.252,0.723,0.492,1.452,0.733,2.18c0.16,0.488,0.327,0.972,0.483,1.463c0.27,0.852,0.527,1.709,0.783,2.567
	c0.11,0.371,0.228,0.739,0.335,1.112c0.354,1.225,0.69,2.456,1.011,3.693c0.086,0.335,0.165,0.675,0.248,1.011
	c0.23,0.914,0.458,1.827,0.67,2.747c0.11,0.48,0.211,0.962,0.318,1.444c0.171,0.783,0.343,1.565,0.503,2.351
	c0.107,0.528,0.206,1.06,0.307,1.59c0.143,0.745,0.283,1.492,0.414,2.243c0.096,0.55,0.186,1.102,0.275,1.653
	c0.12,0.739,0.236,1.478,0.344,2.221c0.082,0.557,0.159,1.115,0.234,1.675c0.101,0.745,0.195,1.492,0.283,2.241
	c0.066,0.557,0.131,1.113,0.192,1.672c0.082,0.761,0.156,1.524,0.225,2.287c0.05,0.55,0.102,1.099,0.146,1.651
	c0.064,0.794,0.116,1.59,0.167,2.387c0.033,0.522,0.071,1.041,0.099,1.565c0.047,0.885,0.08,1.774,0.112,2.664
	c0.016,0.436,0.038,0.871,0.049,1.308c0.035,1.329,0.055,2.659,0.055,3.996c0,0.335-0.016,0.67-0.017,1.005
	c-0.263-0.077-0.528-0.14-0.793-0.215c-1.308-0.373-2.62-0.728-3.935-1.066c-0.495-0.127-0.992-0.253-1.489-0.376
	c-1.356-0.335-2.713-0.651-4.076-0.95c-0.318-0.069-0.634-0.146-0.951-0.214c-1.662-0.354-3.331-0.679-5.004-0.981
	c-0.41-0.074-0.823-0.138-1.233-0.211c-1.305-0.225-2.614-0.434-3.927-0.626c-0.497-0.072-0.992-0.145-1.491-0.214
	c-1.502-0.206-3.007-0.393-4.518-0.557c-0.198-0.022-0.395-0.049-0.593-0.069c-1.698-0.178-3.403-0.324-5.111-0.448
	c-0.467-0.035-0.936-0.061-1.404-0.091c-1.301-0.083-2.604-0.151-3.91-0.204c-0.497-0.02-0.994-0.042-1.492-0.058
	c-1.722-0.053-3.447-0.09-5.177-0.09c-1.73,0-3.455,0.036-5.177,0.09c-0.499,0.016-0.995,0.038-1.492,0.058
	c-1.305,0.053-2.609,0.121-3.91,0.204c-0.469,0.03-0.937,0.057-1.404,0.091c-1.708,0.124-3.413,0.27-5.111,0.448
	c-0.198,0.02-0.396,0.049-0.596,0.069c-1.51,0.164-3.015,0.351-4.517,0.557c-0.497,0.068-0.994,0.142-1.491,0.214
	c-1.312,0.193-2.622,0.401-3.927,0.626c-0.41,0.071-0.822,0.137-1.233,0.211c-1.673,0.302-3.342,0.628-5.004,0.981
	c-0.318,0.068-0.634,0.145-0.951,0.214c-1.362,0.299-2.721,0.616-4.076,0.95c-0.497,0.123-0.994,0.248-1.489,0.376
	c-1.316,0.338-2.628,0.694-3.935,1.066c-0.263,0.075-0.528,0.138-0.793,0.215c-0.002-0.335-0.017-0.672-0.017-1.005
	C210.875,171.774,210.895,170.442,210.93,169.115z M331.827,223.41c0.143,0.101,0.281,0.208,0.425,0.31
	c1.51,1.079,2.993,2.194,4.455,3.334c0.338,0.263,0.676,0.524,1.013,0.791c1.546,1.228,3.07,2.486,4.562,3.781
	c0.222,0.192,0.437,0.392,0.657,0.585c1.34,1.178,2.656,2.383,3.949,3.612c0.277,0.264,0.558,0.524,0.833,0.789
	c1.42,1.373,2.812,2.776,4.174,4.208c0.25,0.264,0.495,0.533,0.744,0.799c1.219,1.302,2.412,2.628,3.581,3.979
	c0.204,0.236,0.414,0.469,0.616,0.706c1.286,1.507,2.54,3.045,3.763,4.605c0.255,0.326,0.506,0.656,0.758,0.985
	c1.121,1.458,2.221,2.936,3.285,4.44c0.121,0.17,0.247,0.337,0.366,0.508c1.145,1.631,2.249,3.293,3.326,4.973
	c0.241,0.374,0.477,0.752,0.714,1.128c1.057,1.683,2.09,3.381,3.076,5.11c0.016,0.027,0.031,0.053,0.047,0.08
	c0.997,1.75,1.945,3.531,2.87,5.325c0.211,0.409,0.42,0.818,0.626,1.228c0.9,1.79,1.774,3.595,2.6,5.426
	c0.068,0.151,0.131,0.303,0.197,0.454c0.766,1.713,1.491,3.446,2.189,5.193c0.171,0.426,0.343,0.852,0.51,1.282
	c0.722,1.854,1.411,3.724,2.055,5.614c0.102,0.302,0.197,0.607,0.297,0.911c0.561,1.683,1.09,3.378,1.588,5.086
	c0.124,0.425,0.253,0.848,0.373,1.275c0.539,1.914,1.043,3.844,1.502,5.786c0.03,0.126,0.055,0.253,0.085,0.379
	c-0.237,0.08-0.47,0.171-0.708,0.25c-0.572,0.187-1.146,0.357-1.72,0.538c-1.417,0.442-2.839,0.863-4.268,1.257
	c-0.653,0.179-1.307,0.357-1.963,0.527c-1.5,0.387-3.007,0.744-4.518,1.077c-0.505,0.112-1.005,0.236-1.51,0.34
	c-1.994,0.415-3.999,0.785-6.012,1.104c-0.445,0.071-0.895,0.123-1.341,0.189c-1.593,0.236-3.193,0.447-4.798,0.624
	c-0.668,0.074-1.34,0.138-2.01,0.201c-1.466,0.138-2.936,0.252-4.41,0.341c-0.629,0.038-1.257,0.083-1.886,0.113
	c-2.063,0.096-4.133,0.159-6.21,0.159c-1.65,0-3.295-0.039-4.935-0.101c-0.502-0.019-1-0.047-1.502-0.071
	c-1.172-0.057-2.34-0.127-3.505-0.214c-0.536-0.039-1.071-0.08-1.606-0.127c-1.269-0.112-2.534-0.242-3.795-0.388
	c-0.365-0.042-0.733-0.077-1.098-0.123c-1.609-0.201-3.211-0.432-4.809-0.694c-0.388-0.063-0.772-0.138-1.161-0.204
	c-1.224-0.211-2.444-0.437-3.661-0.683c-0.521-0.105-1.041-0.215-1.56-0.327c-1.142-0.245-2.279-0.508-3.413-0.785
	c-0.466-0.113-0.933-0.222-1.395-0.34c-1.566-0.399-3.126-0.821-4.676-1.279c-0.083-0.025-0.165-0.053-0.249-0.079
	c-1.466-0.436-2.922-0.903-4.372-1.392c-0.472-0.159-0.942-0.327-1.412-0.492c-1.091-0.382-2.178-0.777-3.26-1.187
	c-0.489-0.186-0.98-0.371-1.467-0.565c-1.206-0.475-2.405-0.97-3.597-1.481c-0.305-0.131-0.613-0.253-0.917-0.387
	c-1.481-0.648-2.952-1.327-4.411-2.032c-0.373-0.181-0.742-0.371-1.113-0.555c-1.099-0.544-2.192-1.101-3.277-1.676
	c-0.477-0.253-0.951-0.51-1.426-0.769c-0.404-0.22-0.804-0.454-1.206-0.681c0.198-0.197,0.387-0.399,0.583-0.598
	c0.933-0.934,1.854-1.876,2.763-2.829c0.348-0.365,0.695-0.731,1.04-1.099c0.953-1.016,1.892-2.044,2.818-3.082
	c0.197-0.22,0.398-0.437,0.594-0.659c1.11-1.258,2.199-2.535,3.27-3.823c0.255-0.307,0.503-0.616,0.755-0.925
	c0.835-1.021,1.659-2.049,2.471-3.089c0.288-0.37,0.577-0.738,0.862-1.11c0.931-1.213,1.848-2.436,2.744-3.672
	c0.088-0.123,0.181-0.242,0.269-0.363c0.988-1.371,1.952-2.758,2.898-4.158c0.23-0.341,0.456-0.684,0.684-1.027
	c0.731-1.098,1.45-2.205,2.156-3.32c0.236-0.374,0.475-0.745,0.708-1.121c1.78-2.862,3.477-5.778,5.086-8.746
	c0.206-0.381,0.407-0.764,0.612-1.146c0.62-1.164,1.227-2.335,1.82-3.515c0.19-0.379,0.384-0.756,0.572-1.137
	c0.752-1.522,1.486-3.051,2.192-4.597c0.028-0.063,0.055-0.127,0.083-0.189c0.668-1.466,1.31-2.944,1.938-4.429
	c0.181-0.429,0.359-0.862,0.536-1.294c0.502-1.216,0.989-2.439,1.464-3.669c0.149-0.387,0.302-0.771,0.448-1.159
	c0.598-1.584,1.178-3.177,1.73-4.781c0.076-0.219,0.145-0.439,0.219-0.657c0.473-1.39,0.926-2.787,1.365-4.193
	c0.146-0.467,0.288-0.936,0.429-1.404c0.387-1.28,0.76-2.567,1.118-3.858c0.074-0.266,0.157-0.527,0.23-0.791
	c0.181,0.115,0.362,0.228,0.543,0.344C328.556,221.159,330.207,222.262,331.827,223.41z M227.48,297.629
	c-1.085,0.576-2.18,1.132-3.277,1.676c-0.371,0.184-0.741,0.376-1.113,0.555c-1.459,0.705-2.93,1.384-4.411,2.032
	c-0.304,0.134-0.612,0.256-0.917,0.387c-1.192,0.511-2.392,1.007-3.597,1.481c-0.488,0.192-0.978,0.377-1.467,0.565
	c-1.082,0.41-2.169,0.807-3.26,1.187c-0.47,0.164-0.94,0.332-1.412,0.492c-1.45,0.488-2.906,0.955-4.372,1.392
	c-0.083,0.025-0.165,0.053-0.248,0.079c-1.549,0.458-3.109,0.879-4.676,1.279c-0.464,0.118-0.931,0.226-1.395,0.34
	c-1.134,0.277-2.271,0.538-3.413,0.785c-0.519,0.112-1.04,0.222-1.56,0.327c-1.216,0.245-2.436,0.472-3.661,0.683
	c-0.387,0.066-0.772,0.142-1.161,0.204c-1.596,0.261-3.199,0.492-4.809,0.694c-0.365,0.046-0.733,0.08-1.098,0.123
	c-1.261,0.148-2.526,0.278-3.795,0.388c-0.535,0.047-1.071,0.086-1.606,0.127c-1.165,0.088-2.334,0.159-3.505,0.214
	c-0.5,0.024-1,0.052-1.502,0.071c-1.64,0.06-3.284,0.101-4.935,0.101c-2.079,0-4.147-0.063-6.21-0.159
	c-0.631-0.03-1.258-0.074-1.886-0.113c-1.475-0.09-2.944-0.203-4.41-0.341c-0.67-0.064-1.341-0.127-2.01-0.201
	c-1.606-0.178-3.205-0.388-4.8-0.624c-0.447-0.066-0.895-0.118-1.34-0.189c-2.015-0.321-4.018-0.69-6.012-1.104
	c-0.505-0.105-1.007-0.23-1.51-0.34c-1.511-0.333-3.018-0.69-4.518-1.077c-0.656-0.17-1.308-0.346-1.963-0.527
	c-1.43-0.393-2.851-0.815-4.27-1.258c-0.572-0.179-1.148-0.349-1.719-0.536c-0.237-0.079-0.472-0.17-0.709-0.25
	c0.03-0.126,0.055-0.253,0.085-0.379c0.461-1.942,0.962-3.872,1.502-5.786c0.121-0.426,0.248-0.849,0.373-1.275
	c0.499-1.708,1.027-3.403,1.588-5.086c0.101-0.302,0.195-0.609,0.297-0.911c0.645-1.889,1.334-3.759,2.055-5.614
	c0.167-0.429,0.338-0.854,0.51-1.282c0.698-1.746,1.423-3.479,2.189-5.193c0.068-0.151,0.129-0.304,0.197-0.454
	c0.826-1.831,1.698-3.636,2.6-5.426c0.206-0.41,0.415-0.819,0.626-1.228c0.925-1.794,1.873-3.575,2.87-5.325
	c0.016-0.027,0.031-0.053,0.047-0.08c0.986-1.728,2.019-3.427,3.076-5.11c0.236-0.377,0.473-0.753,0.714-1.128
	c1.077-1.681,2.181-3.342,3.326-4.973c0.12-0.171,0.245-0.338,0.366-0.508c1.065-1.503,2.164-2.98,3.285-4.44
	c0.252-0.329,0.503-0.657,0.758-0.984c1.224-1.562,2.475-3.098,3.763-4.605c0.203-0.237,0.412-0.47,0.616-0.706
	c1.168-1.349,2.364-2.675,3.581-3.979c0.248-0.266,0.494-0.536,0.744-0.799c1.362-1.433,2.754-2.836,4.174-4.208
	c0.275-0.266,0.557-0.527,0.834-0.789c1.294-1.23,2.609-2.434,3.949-3.612c0.22-0.193,0.436-0.393,0.657-0.585
	c1.491-1.294,3.015-2.552,4.562-3.781c0.335-0.266,0.675-0.527,1.013-0.791c1.463-1.14,2.946-2.255,4.455-3.334
	c0.143-0.102,0.282-0.209,0.425-0.31c1.618-1.148,3.27-2.25,4.94-3.326c0.181-0.116,0.362-0.23,0.543-0.344
	c0.072,0.266,0.156,0.527,0.23,0.791c0.359,1.293,0.731,2.578,1.118,3.858c0.142,0.469,0.285,0.937,0.429,1.404
	c0.439,1.404,0.892,2.802,1.365,4.193c0.074,0.219,0.143,0.439,0.219,0.657c0.552,1.604,1.132,3.197,1.73,4.781
	c0.146,0.388,0.299,0.772,0.448,1.159c0.475,1.228,0.962,2.452,1.464,3.669c0.178,0.431,0.355,0.863,0.536,1.294
	c0.627,1.486,1.269,2.964,1.938,4.429c0.028,0.063,0.055,0.126,0.083,0.189c0.706,1.546,1.441,3.076,2.192,4.597
	c0.189,0.381,0.381,0.758,0.572,1.137c0.593,1.18,1.2,2.351,1.82,3.515c0.203,0.382,0.406,0.766,0.612,1.146
	c1.609,2.966,3.306,5.882,5.086,8.746c0.233,0.376,0.472,0.749,0.708,1.121c0.706,1.115,1.425,2.221,2.156,3.32
	c0.228,0.343,0.453,0.686,0.684,1.027c0.947,1.4,1.911,2.787,2.898,4.158c0.088,0.123,0.181,0.242,0.269,0.363
	c0.896,1.236,1.813,2.46,2.744,3.672c0.285,0.371,0.574,0.741,0.862,1.11c0.812,1.038,1.634,2.068,2.471,3.089
	c0.252,0.308,0.5,0.618,0.755,0.925c1.071,1.29,2.159,2.565,3.27,3.823c0.195,0.222,0.398,0.439,0.594,0.659
	c0.926,1.038,1.865,2.066,2.818,3.082c0.344,0.368,0.692,0.734,1.04,1.099c0.909,0.953,1.831,1.897,2.763,2.829
	c0.197,0.197,0.385,0.401,0.583,0.598c-0.403,0.225-0.802,0.459-1.206,0.681C228.432,297.119,227.957,297.377,227.48,297.629z
	 M217.054,205.138c1.426-0.447,2.858-0.87,4.297-1.266c0.643-0.178,1.286-0.352,1.933-0.519c1.518-0.393,3.043-0.753,4.573-1.091
	c0.488-0.107,0.972-0.228,1.461-0.329c2-0.417,4.01-0.786,6.031-1.109c0.439-0.069,0.881-0.121,1.321-0.187
	c1.601-0.237,3.207-0.448,4.817-0.626c0.665-0.074,1.332-0.137,1.999-0.2c1.469-0.14,2.942-0.253,4.421-0.343
	c0.628-0.038,1.253-0.083,1.883-0.113c2.063-0.096,4.133-0.159,6.212-0.159c2.079,0,4.149,0.063,6.212,0.159
	c0.629,0.03,1.255,0.074,1.882,0.113c1.477,0.09,2.95,0.203,4.419,0.343c0.668,0.063,1.335,0.127,2,0.2
	c1.612,0.178,3.218,0.39,4.817,0.626c0.44,0.066,0.882,0.116,1.321,0.187c2.019,0.321,4.031,0.692,6.031,1.109
	c0.489,0.101,0.973,0.222,1.461,0.329c1.53,0.337,3.056,0.698,4.573,1.091c0.645,0.167,1.29,0.341,1.933,0.519
	c1.437,0.396,2.869,0.819,4.295,1.264c0.568,0.178,1.139,0.346,1.705,0.532c0.239,0.079,0.475,0.171,0.714,0.252
	c-0.061,0.263-0.11,0.532-0.171,0.794c-0.151,0.64-0.318,1.274-0.478,1.909c-0.355,1.417-0.73,2.826-1.128,4.227
	c-0.192,0.675-0.384,1.348-0.585,2.019c-0.455,1.513-0.936,3.015-1.437,4.506c-0.159,0.47-0.303,0.945-0.467,1.412
	c-0.672,1.928-1.384,3.837-2.134,5.728c-0.19,0.478-0.396,0.947-0.591,1.422c-0.59,1.436-1.197,2.862-1.832,4.275
	c-0.28,0.623-0.568,1.242-0.856,1.862c-0.62,1.324-1.26,2.637-1.919,3.94c-0.277,0.547-0.547,1.099-0.832,1.643
	c-0.94,1.799-1.909,3.581-2.925,5.334c-0.093,0.159-0.192,0.313-0.285,0.472c-0.936,1.599-1.906,3.177-2.905,4.737
	c-0.346,0.541-0.705,1.074-1.058,1.61c-0.796,1.206-1.61,2.4-2.444,3.581c-0.381,0.539-0.761,1.08-1.15,1.614
	c-0.978,1.345-1.983,2.67-3.01,3.98c-0.234,0.299-0.459,0.607-0.697,0.904c-1.268,1.588-2.574,3.145-3.911,4.679
	c-0.357,0.409-0.728,0.807-1.09,1.213c-1.014,1.135-2.046,2.257-3.1,3.361c-0.464,0.486-0.931,0.967-1.403,1.447
	c-1.062,1.079-2.144,2.14-3.243,3.186c-0.407,0.388-0.808,0.783-1.222,1.167c-0.159,0.148-0.327,0.288-0.488,0.436
	c-0.16-0.148-0.329-0.286-0.488-0.436c-0.414-0.384-0.813-0.778-1.222-1.167c-1.099-1.047-2.181-2.107-3.243-3.186
	c-0.472-0.48-0.939-0.961-1.403-1.447c-1.054-1.104-2.085-2.225-3.1-3.361c-0.362-0.406-0.733-0.804-1.09-1.213
	c-1.338-1.533-2.645-3.092-3.911-4.679c-0.237-0.297-0.462-0.605-0.697-0.904c-1.027-1.31-2.032-2.636-3.01-3.98
	c-0.388-0.535-0.769-1.074-1.15-1.614c-0.834-1.181-1.648-2.375-2.444-3.581c-0.354-0.536-0.712-1.069-1.058-1.61
	c-0.999-1.56-1.969-3.137-2.905-4.737c-0.093-0.159-0.193-0.313-0.285-0.472c-1.016-1.754-1.985-3.535-2.925-5.334
	c-0.285-0.544-0.555-1.096-0.832-1.643c-0.659-1.302-1.301-2.615-1.919-3.94c-0.289-0.62-0.576-1.238-0.856-1.862
	c-0.635-1.412-1.244-2.839-1.832-4.275c-0.195-0.475-0.401-0.945-0.591-1.422c-0.752-1.89-1.463-3.8-2.134-5.728
	c-0.164-0.467-0.308-0.944-0.467-1.412c-0.502-1.492-0.983-2.993-1.437-4.506c-0.201-0.672-0.393-1.345-0.585-2.019
	c-0.398-1.4-0.772-2.81-1.128-4.227c-0.16-0.637-0.327-1.269-0.478-1.909c-0.063-0.263-0.112-0.53-0.171-0.794
	c0.239-0.08,0.475-0.173,0.716-0.252C215.917,205.484,216.487,205.315,217.054,205.138z"/>
<g>
</g>
<g>
</g>
<g>
</g>
<g>
</g>
<g>
</g>
<g>
</g>
<g>
</g>
<g>
</g>
<g>
</g>
<g>
</g>
<g>
</g>
<g>
</g>
<g>
</g>
<g>
</g>
<g>
</g>
</svg>
