<svg height="512pt" viewBox="0 0 512.0002 512" width="512pt" xmlns="http://www.w3.org/2000/svg"><path d="m437 144.738281v222.515625c0 1.542969-.886719 2.949219-2.28125 3.613282l-27.660156 13.171874-151.058594 71.960938-178.71875-85.140625c-1.390625-.660156-2.28125-2.058594-2.28125-3.609375v-221.871094c0-1 .300781-1.957031.832031-2.757812.5-.75 1.179688-1.359375 2.019531-1.761719l151.410157-72.121094 22.949219-10.9375c2.398437-1.109375 5.179687-1.109375 7.578124.007813l174.980469 83.351562c.652344.308594 1.179688.800782 1.5625 1.378906.429688.640626.667969 1.402344.667969 2.199219zm0 0" fill="#ffd54f"/><path d="m436.332031 142.539062-29.273437 13.941407-177.796875-87.742188 22.949219-10.9375 2.070312-.980469c1.089844-.519531 2.347656-.519531 3.4375 0l2.070312.988282 174.980469 83.351562c.652344.308594 1.179688.800782 1.5625 1.378906zm0 0" fill="#ffca28"/><path d="m256 228.4375v227.5625l-178.71875-85.136719c-1.394531-.660156-2.28125-2.066406-2.28125-3.609375v-221.875c0-1 .300781-1.960937.832031-2.761718zm0 0" fill="#ff50b5"/><path d="m437 144.738281v222.515625c0 1.542969-.886719 2.949219-2.28125 3.613282l-27.660156 13.171874-151.058594 71.960938v-227.558594l151.058594-71.960937 29.273437-13.941407c.429688.640626.667969 1.402344.667969 2.199219zm0 0" fill="#af7fdf"/><path d="m437 144.738281v222.515625c0 1.542969-.886719 2.949219-2.28125 3.613282l-27.660156 13.171874v-227.558593l29.273437-13.941407c.429688.640626.667969 1.402344.667969 2.199219zm0 0" fill="#9f66d8"/><path d="m511.273438 107.289062c-1.773438-3.742187-6.25-5.339843-9.992188-3.5625l-496.996094 235.871094c-3.742187 1.773438-5.335937 6.246094-3.558594 9.988282 1.28125 2.707031 3.972657 4.289062 6.78125 4.289062 1.078126 0 2.171876-.234375 3.210938-.730469l496.996094-235.867187c3.742187-1.773438 5.335937-6.246094 3.558594-9.988282zm0 0" fill="#4380a0"/><path d="m501.28125 331.289062-350.691406 166.433594c-3.742188 1.777344-5.335938 6.25-3.558594 9.992188 1.28125 2.703125 3.972656 4.285156 6.78125 4.285156 1.074219 0 2.171875-.234375 3.210938-.726562l350.691406-166.433594c3.742187-1.773438 5.335937-6.25 3.558594-9.992188-1.773438-3.742187-6.25-5.335937-9.992188-3.558594zm0 0" fill="#4380a0"/><path d="m256 0c-4.144531 0-7.5 3.355469-7.5 7.5v497c0 4.140625 3.355469 7.5 7.5 7.5s7.5-3.359375 7.5-7.5v-497c0-4.144531-3.355469-7.5-7.5-7.5zm0 0" fill="#3b7191"/></svg>