<svg id="Capa_1" enable-background="new 0 0 512.001 512.001" height="512" viewBox="0 0 512.001 512.001" width="512" xmlns="http://www.w3.org/2000/svg"><g><path d="m380.082 457.892 8.04-4.44c65.571-36.207 109.083-102.407 116.314-176.961.791-8.155-5.789-15.136-13.977-14.829l-.372.014c-8.35.314-15.411 6.08-17.37 14.124l-8.036 32.995c-8.135 33.403-30.705 61.458-61.591 76.558-12.748 6.232-27.187-4.618-24.746-18.597l6.343-36.33c1.196-6.851-3.29-13.407-10.11-14.772-5.179-1.037-10.464 1.209-13.312 5.657l-45.964 71.8.776 20.202 44.513 44.513z" fill="#ffddce"/><path d="m370.888 317.651-6.343 36.33c-1.758 10.069 5.244 18.514 14.062 20.121-.586-2.283-.715-4.76-.263-7.345l6.343-36.33c1.196-6.851-3.29-13.407-10.11-14.772-1.174-.235-2.353-.293-3.508-.203-.001.726-.052 1.459-.181 2.199z" fill="#ffcbbe"/><path d="m490.664 261.666c.036.673.04 1.354-.027 2.049-7.23 74.554-50.743 140.753-116.314 176.961l-8.04 4.44-18.466-.062 12.773 12.773 19.492.066 8.04-4.44c65.571-36.207 109.083-102.407 116.314-176.961.784-8.086-5.681-15.009-13.772-14.826z" fill="#ffcbbe"/><path d="m356.458 504.5 29.779-29.779c2.947-2.947 2.947-7.726 0-10.673l-75.792-75.792c-2.947-2.947-7.726-2.947-10.673 0l-29.779 29.779z" fill="#80b4fb"/><path d="m386.238 464.047-75.792-75.792c-2.947-2.947-7.726-2.947-10.673 0l-5.969 5.969 68.26 68.26c2.947 2.947 2.947 7.726 0 10.673l-18.474 18.473 12.869 12.869 29.779-29.779c2.947-2.947 2.947-7.725 0-10.673z" fill="#61a2f9"/><path d="m131.919 457.892-8.04-4.44c-65.571-36.207-109.083-102.407-116.314-176.96-.791-8.155 5.789-15.136 13.977-14.829l.372.014c8.35.314 15.411 6.08 17.37 14.124l8.036 32.995c8.135 33.403 30.705 61.458 61.591 76.558 12.748 6.232 27.187-4.618 24.746-18.597l-6.343-36.33c-1.196-6.851 3.29-13.407 10.11-14.772 5.179-1.037 10.464 1.209 13.312 5.657l45.964 71.8-.776 20.202-44.513 44.513z" fill="#ffddce"/><path d="m8.795 273.693.372.014c8.35.314 15.411 6.079 17.37 14.124l8.036 32.995c8.135 33.403 30.705 61.458 61.591 76.558 10.198 4.986 21.468-.965 24.324-10.699-3.668.873-7.699.565-11.577-1.331-30.886-15.1-53.456-43.155-61.591-76.558l-8.036-32.995c-1.959-8.044-9.02-13.81-17.37-14.124l-.372-.014c-7.238-.272-13.21 5.155-13.954 12.051.399-.02.799-.036 1.207-.021z" fill="#ffcbbe"/><path d="m150.735 321.312c-2.848-4.448-8.133-6.695-13.312-5.657-5.817 1.165-9.923 6.109-10.266 11.789 4.325-.012 8.438 2.161 10.83 5.898l45.964 71.799-.775 20.202-32.485 32.485.719-.002 44.513-44.513.775-20.202z" fill="#ffcbbe"/><path d="m155.543 504.5-29.779-29.779c-2.947-2.947-2.947-7.726 0-10.673l75.792-75.792c2.947-2.947 7.726-2.947 10.673 0l29.779 29.779z" fill="#80b4fb"/><path d="m131.27 480.228 68.722-68.722c2.947-2.947 7.726-2.947 10.673 0l18.936 18.936 12.407-12.407-29.779-29.779c-2.947-2.947-7.726-2.947-10.673 0l-75.792 75.793c-2.947 2.948-2.947 7.726 0 10.673z" fill="#61a2f9"/><g><path d="m339.79 74.287 9.974 5.529c2.55 1.413 4.132 4.099 4.132 7.014v26.095c0 2.915-1.582 5.601-4.132 7.014l-9.974 5.529c-1.273.706-2.33 1.744-3.057 3.004l-15.602 27.024c-.728 1.26-1.099 2.695-1.073 4.15l.199 11.402c.051 2.915-1.484 5.628-4.009 7.085l-22.599 13.047c-2.525 1.458-5.642 1.43-8.14-.071l-9.775-5.873c-1.247-.749-2.675-1.145-4.13-1.145h-31.205c-1.455 0-2.883.396-4.13 1.145l-9.775 5.873c-2.499 1.501-5.616 1.529-8.14.071l-22.599-13.047c-2.525-1.458-4.06-4.17-4.009-7.085l.199-11.402c.025-1.455-.346-2.89-1.073-4.15l-15.602-27.024c-.728-1.26-1.784-2.299-3.057-3.004l-9.974-5.529c-2.55-1.413-4.132-4.099-4.132-7.014v-26.094c0-2.915 1.582-5.601 4.132-7.014l9.974-5.529c1.273-.706 2.33-1.744 3.057-3.004l15.602-27.024c.728-1.26 1.099-2.695 1.073-4.15l-.199-11.402c-.051-2.915 1.484-5.628 4.009-7.085l22.599-13.047c2.525-1.458 5.642-1.43 8.14.071l9.775 5.873c1.247.749 2.675 1.145 4.13 1.145h31.205c1.455 0 2.883-.396 4.13-1.145l9.775-5.873c2.499-1.501 5.616-1.529 8.14-.071l22.599 13.047c2.525 1.458 4.06 4.17 4.009 7.085l-.199 11.402c-.025 1.455.346 2.89 1.073 4.15l15.602 27.024c.728 1.259 1.785 2.298 3.057 3.003zm-83.789-12.267c-20.908 0-37.858 16.95-37.858 37.858s16.95 37.858 37.858 37.858 37.858-16.95 37.858-37.858-16.95-37.858-37.858-37.858z" fill="#80b4fb"/><g><path d="m349.764 79.816-9.974-5.529c-1.273-.706-2.33-1.744-3.057-3.004l-15.603-27.024c-.728-1.26-1.099-2.695-1.073-4.15l.199-11.402c.051-2.915-1.484-5.628-4.009-7.085l-22.598-13.048c-2.525-1.458-5.642-1.43-8.141.071l-8.322 5 13.816 7.977c2.525 1.458 4.06 4.171 4.009 7.085l-.199 11.402c-.025 1.455.346 2.89 1.073 4.15l15.602 27.024c.728 1.26 1.784 2.299 3.057 3.004l9.974 5.529c2.55 1.413 4.132 4.099 4.132 7.014v26.095c0 2.915-1.582 5.601-4.132 7.014l-9.974 5.529c-1.273.706-2.33 1.744-3.057 3.004l-15.602 27.024c-.728 1.26-1.099 2.695-1.073 4.15l.199 11.402c.051 2.915-1.484 5.628-4.009 7.085l-13.816 7.977 8.322 5c2.499 1.501 5.616 1.529 8.141.071l22.599-13.047c2.525-1.458 4.06-4.171 4.009-7.085l-.199-11.402c-.025-1.455.346-2.89 1.073-4.15l15.603-27.024c.728-1.26 1.784-2.299 3.057-3.004l9.974-5.529c2.55-1.413 4.132-4.099 4.132-7.014v-26.095c-.001-2.916-1.583-5.601-4.133-7.015z" fill="#61a2f9"/></g></g><g><g><path d="m450.545 195.657 6.915 3.833c1.768.98 2.865 2.842 2.865 4.863v18.093c0 2.021-1.097 3.883-2.865 4.863l-6.915 3.833c-.883.489-1.615 1.209-2.12 2.083l-10.818 18.737c-.505.874-.762 1.868-.744 2.877l.138 7.906c.035 2.021-1.029 3.902-2.78 4.913l-15.669 9.047c-1.751 1.011-3.912.992-5.644-.049l-6.778-4.072c-.865-.52-1.855-.794-2.864-.794h-21.636c-1.009 0-1.999.275-2.864.794l-6.778 4.072c-1.733 1.041-3.894 1.06-5.644.049l-15.669-9.047c-1.751-1.011-2.815-2.892-2.78-4.913l.138-7.906c.018-1.009-.24-2.003-.744-2.877l-10.818-18.737c-.504-.874-1.237-1.594-2.12-2.083l-6.915-3.833c-1.768-.98-2.865-2.842-2.865-4.863v-18.093c0-2.021 1.097-3.883 2.865-4.863l6.915-3.833c.882-.489 1.615-1.209 2.12-2.083l10.818-18.737c.504-.874.762-1.868.744-2.877l-.138-7.906c-.035-2.021 1.029-3.902 2.78-4.913l15.669-9.047c1.751-1.011 3.912-.992 5.644.049l6.778 4.072c.865.52 1.855.794 2.864.794h21.636c1.009 0 1.999-.275 2.864-.794l6.778-4.072c1.733-1.041 3.894-1.06 5.644-.049l15.669 9.047c1.751 1.011 2.815 2.892 2.78 4.913l-.138 7.906c-.018 1.009.24 2.003.744 2.877l10.818 18.737c.504.874 1.237 1.594 2.12 2.083zm-58.097-8.506c-14.497 0-26.249 11.752-26.249 26.249s11.752 26.249 26.249 26.249 26.249-11.752 26.249-26.249-11.752-26.249-26.249-26.249z" fill="#80b4fb"/><g><path d="m457.46 199.49-6.915-3.833c-.883-.489-1.615-1.209-2.12-2.083l-10.818-18.737c-.504-.874-.762-1.868-.744-2.877l.138-7.906c.035-2.021-1.029-3.902-2.779-4.913l-15.669-9.047c-1.751-1.011-3.912-.992-5.644.049l-5.77 3.467 9.579 5.531c1.75 1.011 2.815 2.892 2.779 4.913l-.138 7.906c-.018 1.009.24 2.003.744 2.877l10.818 18.737c.505.874 1.237 1.594 2.12 2.083l6.915 3.833c1.768.98 2.865 2.842 2.865 4.864v18.093c0 2.021-1.097 3.884-2.865 4.863l-6.915 3.833c-.883.489-1.615 1.209-2.12 2.083l-10.818 18.737c-.504.874-.762 1.868-.744 2.877l.138 7.906c.035 2.021-1.029 3.902-2.779 4.913l-9.579 5.531 5.77 3.467c1.733 1.041 3.894 1.06 5.644.049l15.669-9.047c1.751-1.011 2.815-2.892 2.779-4.913l-.138-7.906c-.018-1.009.24-2.003.744-2.877l10.818-18.737c.504-.874 1.237-1.594 2.12-2.083l6.915-3.833c1.768-.98 2.865-2.842 2.865-4.863v-18.093c0-2.021-1.097-3.884-2.865-4.864z" fill="#61a2f9"/></g></g><g><path d="m177.649 195.657 6.915 3.833c1.768.98 2.865 2.842 2.865 4.863v18.093c0 2.021-1.097 3.883-2.865 4.863l-6.915 3.833c-.882.489-1.615 1.209-2.12 2.083l-10.818 18.737c-.505.874-.762 1.868-.744 2.877l.138 7.906c.035 2.021-1.029 3.902-2.78 4.913l-15.669 9.047c-1.751 1.011-3.912.992-5.644-.049l-6.778-4.072c-.865-.52-1.855-.794-2.864-.794h-21.636c-1.009 0-1.999.275-2.864.794l-6.778 4.072c-1.733 1.041-3.894 1.06-5.644.049l-15.668-9.045c-1.751-1.011-2.815-2.892-2.78-4.913l.138-7.906c.018-1.009-.24-2.003-.744-2.877l-10.818-18.737c-.505-.874-1.237-1.594-2.12-2.083l-6.915-3.833c-1.768-.98-2.865-2.842-2.865-4.863v-18.093c0-2.021 1.097-3.883 2.865-4.863l6.915-3.833c.882-.489 1.615-1.209 2.12-2.083l10.818-18.737c.505-.874.762-1.868.744-2.877l-.138-7.906c-.035-2.021 1.029-3.902 2.78-4.913l15.669-9.047c1.751-1.011 3.912-.992 5.644.049l6.778 4.072c.865.52 1.855.794 2.864.794h21.636c1.009 0 1.999-.275 2.864-.794l6.778-4.072c1.733-1.041 3.894-1.06 5.644-.049l15.669 9.047c1.751 1.011 2.815 2.892 2.78 4.913l-.138 7.906c-.018 1.009.24 2.003.744 2.877l10.818 18.737c.504.872 1.237 1.592 2.119 2.081zm-58.096-8.506c-14.497 0-26.249 11.752-26.249 26.249s11.752 26.249 26.249 26.249 26.249-11.752 26.249-26.249-11.752-26.249-26.249-26.249z" fill="#80b4fb"/><g><path d="m184.565 199.49-6.915-3.833c-.883-.489-1.615-1.209-2.12-2.083l-10.818-18.737c-.504-.874-.762-1.868-.744-2.877l.138-7.906c.035-2.021-1.029-3.902-2.779-4.913l-15.669-9.047c-1.751-1.011-3.912-.992-5.644.049l-5.77 3.467 9.579 5.531c1.751 1.011 2.815 2.892 2.779 4.913l-.138 7.906c-.018 1.009.24 2.003.744 2.877l10.818 18.737c.505.874 1.237 1.594 2.12 2.083l6.915 3.833c1.768.98 2.865 2.842 2.865 4.864v18.093c0 2.021-1.097 3.884-2.865 4.863l-6.915 3.833c-.883.489-1.615 1.209-2.12 2.083l-10.818 18.737c-.504.874-.762 1.868-.744 2.877l.138 7.906c.035 2.021-1.029 3.902-2.779 4.913l-9.579 5.531 5.77 3.467c1.733 1.041 3.894 1.06 5.644.049l15.669-9.047c1.751-1.011 2.815-2.892 2.779-4.913l-.138-7.906c-.018-1.009.24-2.003.744-2.877l10.818-18.737c.504-.874 1.237-1.594 2.12-2.083l6.915-3.833c1.768-.98 2.865-2.842 2.865-4.863v-18.093c0-2.021-1.097-3.884-2.865-4.864z" fill="#61a2f9"/></g></g></g><g><path d="m490.184 254.168-.378.014c-11.613.437-21.637 8.597-24.376 19.845l-8.035 32.995c-7.632 31.335-28.626 57.431-57.599 71.595-3.402 1.662-7.241 1.298-10.269-.978-3.028-2.275-4.446-5.861-3.795-9.592l6.343-36.33c1.911-10.947-5.128-21.233-16.025-23.417-8.271-1.655-16.553 1.863-21.101 8.968l-41.054 64.13c-5.878-4.237-14.142-3.73-19.428 1.554l-29.779 29.779c-2.929 2.93-2.929 7.678 0 10.607l86.466 86.466c1.465 1.464 3.385 2.196 5.304 2.196s3.839-.732 5.304-2.196l29.779-29.779c5.569-5.57 5.841-14.452.832-20.36 9.552-5.313 18.876-11.401 27.722-18.113 3.3-2.503 3.945-7.208 1.441-10.508-2.501-3.299-7.206-3.945-10.508-1.441-15.208 11.537-27.954 17.999-29.632 18.996l-56.524-56.524 42.71-66.718c1.19-1.859 3.357-2.774 5.521-2.348 2.853.572 4.695 3.264 4.194 6.129l-6.343 36.33c-1.616 9.259 2.048 18.518 9.561 24.163 7.514 5.646 17.425 6.589 25.868 2.462 32.989-16.128 56.895-45.841 65.585-81.521l8.035-32.995c2.586-10.624 17.868-11.118 16.967-1.808-4.936 50.891-27.68 98.771-64.043 134.82-2.941 2.916-2.962 7.665-.046 10.606s7.663 2.964 10.606.046c38.844-38.508 63.14-89.657 68.412-144.025 1.223-12.593-8.901-23.502-21.715-23.048zm-133.726 239.726-75.854-75.854 24.537-24.481 75.792 75.858z"/><path d="m158.601 126.499 9.972 5.526c.083.047.152.114.2.197l15.602 27.022c.048.082.072.176.07.271l-.199 11.401c-.098 5.638 2.874 10.892 7.758 13.712l22.599 13.046c2.401 1.388 5.082 2.08 7.761 2.08 2.769 0 5.536-.739 7.992-2.216l9.778-5.875c.079-.047.171-.072.266-.072h31.204c.095 0 .188.025.269.074l9.775 5.874c4.835 2.904 10.872 2.957 15.752.136l22.599-13.047c4.884-2.819 7.855-8.073 7.758-13.712l-.198-11.401c-.002-.095.022-.188.069-.27l15.604-27.024c.047-.082.116-.149.196-.194l9.974-5.528c4.932-2.733 7.996-7.935 7.996-13.574v-26.095c0-5.638-3.063-10.839-7.996-13.574l-9.971-5.526c-.083-.047-.152-.114-.201-.198l-.901-1.561c-2.071-3.586-6.66-4.815-10.245-2.743-3.587 2.071-4.815 6.658-2.743 10.245l.899 1.559c1.407 2.438 3.452 4.448 5.917 5.815l9.972 5.527c.166.093.27.267.27.456v26.095c0 .189-.103.363-.268.455l-9.977 5.53c-2.462 1.365-4.507 3.376-5.913 5.812l-15.604 27.024c-1.407 2.439-2.125 5.216-2.076 8.03l.198 11.401c.004.189-.096.365-.26.46l-22.6 13.048c-.163.093-.367.091-.526-.005l-9.774-5.873c-2.414-1.45-5.178-2.217-7.994-2.217h-31.204c-2.818 0-5.583.767-7.993 2.217l-9.776 5.873c-.161.097-.363.099-.526.004l-22.599-13.046c-.164-.096-.265-.271-.261-.461l.199-11.401c.049-2.814-.669-5.591-2.077-8.031l-15.602-27.022c-1.407-2.438-3.452-4.448-5.917-5.815l-9.974-5.528c-.165-.091-.268-.266-.268-.455v-26.095c0-.189.104-.364.267-.455l9.978-5.53c2.462-1.365 4.507-3.376 5.913-5.812l15.604-27.024c1.407-2.439 2.125-5.216 2.076-8.03l-.199-11.401c-.004-.188.096-.364.26-.459l22.601-13.049c.164-.094.364-.092.526.006l9.776 5.874c2.413 1.449 5.177 2.216 7.992 2.216h31.204c2.813 0 5.576-.766 7.993-2.217l9.775-5.873c.162-.098.363-.1.527-.005l22.601 13.049c.162.094.262.27.258.458l-.198 11.402c-.041 2.358.484 4.755 1.519 6.93 1.78 3.74 6.256 5.331 9.994 3.553 3.741-1.779 5.331-6.254 3.553-9.994-.051-.106-.068-.19-.067-.228l.198-11.401c.098-5.64-2.875-10.894-7.758-13.711l-22.6-13.049c-4.883-2.821-10.921-2.77-15.754.137l-9.771 5.871c-.083.05-.177.076-.271.076h-31.204c-.095 0-.188-.026-.269-.074l-9.773-5.872c-4.831-2.905-10.87-2.96-15.754-.139l-22.599 13.047c-4.884 2.819-7.856 8.073-7.759 13.712l.199 11.401c.002.095-.022.188-.069.27l-15.604 27.024c-.047.082-.116.149-.196.194l-9.978 5.529c-4.93 2.735-7.992 7.937-7.992 13.573v26.095c0 5.64 3.063 10.841 7.995 13.575z"/><path d="m256 54.52c-25.01 0-45.357 20.348-45.357 45.358s20.348 45.357 45.357 45.357c25.011 0 45.358-20.348 45.358-45.357.001-25.011-20.347-45.358-45.358-45.358zm0 75.716c-16.739 0-30.357-13.618-30.357-30.357s13.618-30.359 30.357-30.359 30.358 13.619 30.358 30.358-13.619 30.358-30.358 30.358z"/><path d="m392.448 247.15c18.609 0 33.749-15.14 33.749-33.749s-15.14-33.749-33.749-33.749-33.75 15.14-33.75 33.749 15.141 33.749 33.75 33.749zm0-52.498c10.338 0 18.749 8.411 18.749 18.749s-8.411 18.749-18.749 18.749c-10.339 0-18.75-8.411-18.75-18.749s8.412-18.749 18.75-18.749z"/><path d="m340.397 164.185.129 7.367-10.281 17.807-6.441 3.571c-4.152 2.299-6.731 6.677-6.731 11.424v18.093c0 4.745 2.578 9.123 6.729 11.424l6.443 3.572 10.281 17.806-.129 7.368c-.082 4.744 2.419 9.166 6.528 11.539l15.67 9.046c2.021 1.167 4.275 1.749 6.53 1.749 2.33 0 4.659-.622 6.727-1.864l6.315-3.795h20.562l6.315 3.795c4.067 2.443 9.146 2.488 13.258.115l15.668-9.046c4.11-2.372 6.611-6.793 6.529-11.539l-.129-7.368 10.281-17.806 6.446-3.573c4.149-2.302 6.727-6.679 6.727-11.423v-18.093c0-4.746-2.578-9.123-6.728-11.423l-6.445-3.573-10.281-17.806.129-7.367c.082-4.746-2.419-9.167-6.528-11.539l-15.67-9.047c-4.107-2.373-9.188-2.326-13.257.116l-6.315 3.795h-20.562l-6.315-3.795c-4.067-2.443-9.147-2.488-13.258-.116l-15.67 9.048c-4.108 2.372-6.609 6.794-6.527 11.538zm15.017.88 13.69-7.904 5.8 3.485c2.031 1.22 4.356 1.864 6.726 1.864h21.636c2.369 0 4.694-.645 6.727-1.865l5.799-3.484 13.69 7.904-.118 6.764c-.041 2.372.564 4.711 1.748 6.758l10.816 18.733c1.184 2.054 2.906 3.747 4.979 4.896l5.917 3.28v15.809l-5.919 3.28c-2.073 1.15-3.795 2.844-4.976 4.892l-10.817 18.735c-1.186 2.053-1.79 4.39-1.749 6.761l.118 6.764-13.69 7.903-5.8-3.484c-2.031-1.22-4.356-1.864-6.726-1.864h-21.635c-2.369 0-4.694.645-6.728 1.865l-5.798 3.483-13.69-7.903.118-6.764c.041-2.371-.563-4.708-1.748-6.759l-10.816-18.733c-1.184-2.054-2.906-3.747-4.98-4.896l-5.916-3.279v-15.809l5.91-3.276c2.076-1.148 3.801-2.843 4.984-4.896l10.815-18.732c1.187-2.052 1.792-4.391 1.751-6.763z"/><path d="m119.553 247.15c18.609 0 33.749-15.14 33.749-33.749s-15.14-33.749-33.749-33.749-33.749 15.14-33.749 33.749 15.14 33.749 33.749 33.749zm0-52.498c10.338 0 18.749 8.411 18.749 18.749s-8.411 18.749-18.749 18.749-18.749-8.411-18.749-18.749 8.411-18.749 18.749-18.749z"/><path d="m50.905 233.87 6.445 3.572 10.28 17.806-.13 7.368c-.082 4.745 2.42 9.167 6.529 11.539l15.668 9.045c4.107 2.374 9.188 2.33 13.259-.114l6.315-3.795h20.561l6.316 3.795c2.068 1.242 4.396 1.864 6.728 1.864 2.254 0 4.509-.582 6.529-1.749l15.668-9.046c4.11-2.372 6.612-6.794 6.53-11.54l-.13-7.367 10.28-17.806 6.447-3.573c4.149-2.302 6.728-6.679 6.728-11.423v-18.093c0-4.746-2.579-9.123-6.729-11.423l-6.445-3.573-10.281-17.806.13-7.367c.082-4.745-2.42-9.167-6.529-11.539l-15.668-9.046c-4.108-2.375-9.188-2.329-13.257.115l-6.317 3.795h-20.561l-6.317-3.796c-4.069-2.444-9.148-2.486-13.256-.115l-15.668 9.047c-4.11 2.372-6.612 6.794-6.53 11.54l.13 7.366-10.28 17.806-6.444 3.572c-4.151 2.301-6.73 6.678-6.73 11.424v18.093c0 4.745 2.578 9.122 6.729 11.424zm8.271-28.374 5.91-3.276c2.074-1.147 3.798-2.84 4.985-4.896l10.819-18.738c1.184-2.052 1.788-4.389 1.747-6.758l-.119-6.762 13.691-7.905 5.797 3.483c2.031 1.221 4.357 1.866 6.728 1.866h21.637c2.37 0 4.696-.646 6.726-1.865l5.8-3.484 13.69 7.905-.119 6.763c-.041 2.368.563 4.705 1.748 6.758l10.819 18.739c1.187 2.055 2.91 3.747 4.984 4.895l5.91 3.276v15.809l-5.916 3.279c-2.072 1.148-3.794 2.84-4.979 4.893l-10.82 18.741c-1.184 2.053-1.787 4.388-1.746 6.756l.119 6.762-13.691 7.904-5.797-3.482c-2.031-1.221-4.357-1.866-6.728-1.866h-21.637c-2.37 0-4.696.646-6.726 1.865l-5.799 3.483-13.691-7.904.119-6.763c.041-2.367-.562-4.702-1.748-6.759l-10.819-18.739c-1.185-2.051-2.906-3.742-4.979-4.891l-5.916-3.279v-15.81z"/><path d="m217.533 382.951c-5.286-5.284-13.55-5.791-19.428-1.554l-41.054-64.13c-4.547-7.104-12.835-10.63-21.102-8.967-10.896 2.183-17.936 12.469-16.024 23.416l6.342 36.33c.651 3.73-.767 7.316-3.795 9.592-3.026 2.275-6.867 2.64-10.269.977-28.973-14.165-49.967-40.261-57.598-71.594l-8.036-32.995c-2.739-11.248-12.763-19.408-24.381-19.845l-.368-.014c-12.714-.487-22.946 10.385-21.72 23.048 7.449 76.81 52.119 144.954 119.531 182.446-5.012 5.906-4.744 14.791.828 20.364l29.779 29.779c1.465 1.464 3.384 2.196 5.304 2.196 1.919 0 3.839-.732 5.303-2.196l33.282-33.28c2.929-2.93 2.929-7.678 0-10.607-2.929-2.927-7.677-2.929-10.607 0l-27.972 27.972-24.481-24.536 75.859-75.793 24.477 24.476-26.68 26.678c-2.929 2.93-2.929 7.678 0 10.607 2.93 2.927 7.679 2.929 10.606 0l31.982-31.981c1.407-1.407 2.197-3.314 2.197-5.304s-.79-3.896-2.196-5.304zm-202.503-107.183c-.357-3.685 2.659-6.777 6.23-6.609.1.004.472.017.372.014 5.021.188 9.186 3.565 10.363 8.403l8.036 32.995c8.689 35.679 32.594 65.392 65.584 81.521 8.443 4.127 18.356 3.185 25.868-2.462 7.514-5.646 11.177-14.904 9.561-24.163l-6.342-36.33c-.501-2.865 1.342-5.557 4.193-6.129 2.169-.432 4.332.487 5.522 2.348l42.71 66.718-56.524 56.524c-.908-.843-103.567-49.033-115.573-172.83z"/></g></g></svg>