<svg version="1.1" id="Uploaded to svgrepo.com" xmlns="http://www.w3.org/2000/svg" xmlns:xlink="http://www.w3.org/1999/xlink" x="0px" y="0px"
	 width="32px" height="32px" viewBox="0 0 32 32" style="enable-background:new 0 0 32 32;" xml:space="preserve">
<style type="text/css">
	.hatch_een{fill:#265AA5;}
	.hatch_twee{fill:#FFC5BB;}
</style>
<g>
	<path class="hatch_twee" d="M14,28.749L11.749,31h-1.414L14,27.335V28.749z M25,20.335v1.414l5-5v-1.414L25,20.335z M25,16.335
		v1.414L28.749,14h-1.414L25,16.335z M25,28.335v1.414l5-5v-1.414L25,28.335z M26.335,31h1.414L30,28.749v-1.414L26.335,31z
		 M9,28.335v1.414l5-5v-1.414L9,28.335z M25,24.335v1.414l5-5v-1.414L25,24.335z M14,12.749v-1.414l-5,5v1.414L14,12.749z M14,8.749
		V7.335l-5,5v1.414L14,8.749z M14,16.749v-1.414l-5,5v1.414L14,16.749z M9,24.335v1.414l5-5v-1.414L9,24.335z M12.749,2h-1.414
		L9,4.335v1.414L12.749,2z M14,4.749V3.335l-5,5v1.414L14,4.749z"/>
	<path class="hatch_een" d="M6,13H1c-0.552,0-1,0.448-1,1v17c0,0.552,0.448,1,1,1h5c0.552,0,1-0.448,1-1V14C7,13.448,6.552,13,6,13z
		 M6,31H1V14h5V31z M14,1H9C8.448,1,8,1.448,8,2v29c0,0.552,0.448,1,1,1h5c0.552,0,1-0.448,1-1V2C15,1.448,14.552,1,14,1z M14,31H9
		V2h5V31z M22,6h-5c-0.552,0-1,0.448-1,1v24c0,0.552,0.448,1,1,1h5c0.552,0,1-0.448,1-1V7C23,6.448,22.552,6,22,6z M22,31h-5V7h5V31
		z M30,13h-5c-0.552,0-1,0.448-1,1v17c0,0.552,0.448,1,1,1h5c0.552,0,1-0.448,1-1V14C31,13.448,30.552,13,30,13z M30,31h-5V14h5V31z
		"/>
</g>
</svg>