<?xml version="1.0" encoding="iso-8859-1"?>
<!-- Generator: Adobe Illustrator 18.0.0, SVG Export Plug-In . SVG Version: 6.00 Build 0)  -->
<!DOCTYPE svg PUBLIC "-//W3C//DTD SVG 1.1//EN" "http://www.w3.org/Graphics/SVG/1.1/DTD/svg11.dtd">
<svg version="1.1" id="Capa_1" xmlns="http://www.w3.org/2000/svg" xmlns:xlink="http://www.w3.org/1999/xlink" x="0px" y="0px"
	 viewBox="0 0 428 428" style="enable-background:new 0 0 428 428;" xml:space="preserve">
<g>
	<path style="fill:#7C6655;" d="M214,309.501c-65.893,0-119.5-53.607-119.5-119.5v-49c0-4.142,3.358-7.5,7.5-7.5h31v15h-23.5v41.5
		c0,57.622,46.878,104.5,104.5,104.5s104.5-46.878,104.5-104.5v-41.5H295v-15h31c4.142,0,7.5,3.358,7.5,7.5v49
		C333.5,255.894,279.893,309.501,214,309.501z"/>
	<rect x="206.5" y="302.001" style="fill:#7C6655;" width="15" height="98"/>
	<path style="fill:#E77200;" d="M273.003,428h-118c0-7.73,3.13-14.73,8.2-19.8c5.06-5.07,12.06-8.2,19.8-8.2h62
		C260.463,400,273.003,412.54,273.003,428z"/>
	<path style="fill:#51B7A6;" d="M282.263,37.39L194.103,190h-61.1V81c0-44.73,36.26-81,81-81c22.36,0,42.62,9.07,57.27,23.73
		C275.403,27.86,279.093,32.44,282.263,37.39z"/>
	<path style="fill:#51B7A6;" d="M295.003,81v109h-48.53h-25.94l72.71-125.85C294.393,69.58,295.003,75.22,295.003,81z"/>
	<path style="fill:#88C9B3;" d="M293.243,64.14v0.01L220.533,190h-3.87h-22.56l88.16-152.61
		C287.423,45.44,291.193,54.47,293.243,64.14z"/>
	<path style="fill:#E77200;" d="M246.473,190l-46.13,79.85c-8.86-1.5-17.22-4.44-24.85-8.58l41.17-71.27h3.87H246.473z"/>
	<path style="fill:#C65C05;" d="M216.663,190l-41.17,71.27c-25.31-13.69-42.49-40.47-42.49-71.27h61.1H216.663z"/>
	<path style="fill:#C65C05;" d="M246.473,190h48.53c0,44.74-36.27,81-81,81c-4.66,0-9.22-0.39-13.66-1.15L246.473,190z"/>
	<rect x="133.003" y="176.27" style="fill:#7C6655;" width="162" height="13.73"/>
</g>
<g>
</g>
<g>
</g>
<g>
</g>
<g>
</g>
<g>
</g>
<g>
</g>
<g>
</g>
<g>
</g>
<g>
</g>
<g>
</g>
<g>
</g>
<g>
</g>
<g>
</g>
<g>
</g>
<g>
</g>
</svg>
