<?xml version="1.0" encoding="utf-8"?>
<!-- Generator: Adobe Illustrator 25.0.0, SVG Export Plug-In . SVG Version: 6.00 Build 0)  -->
<svg version="1.1" id="Layer_1" xmlns="http://www.w3.org/2000/svg" xmlns:xlink="http://www.w3.org/1999/xlink" x="0px" y="0px"
	 viewBox="0 0 30.1 2.3" style="enable-background:new 0 0 30.1 2.3;" xml:space="preserve">
<style type="text/css">
	.st0{fill:#D2A87B;}
</style>
<path class="st0" d="M21.8,2.2l0.5-0.1c0.8-0.1,1.5-0.1,2.3,0h0.5h0.8h0.8c0,0,0.1,0,0.1-0.1c0,0,0-0.1,0-0.1c0,0,0,0,0,0H26
	l-1.6-0.1h-0.1c-0.1,0-0.2,0-0.3,0c0.1,0,0.2,0,0.4,0H25h0.9c0.1,0,0.2,0,0.2-0.1c0,0,0,0,0,0c0,0,0,0,0-0.1l0,0h-0.3l-0.6-0.1h-0.6
	h-0.1c0.1,0,0.2,0,0.3,0h0.1h0.5h0.9h1.2h0.2c0.1,0,0.3,0,0.4,0c0.2,0,0.3-0.1,0.5-0.1c0.1,0,0.2,0,0.3,0h0.1c0.1,0,0.2,0,0.2-0.1
	c0.1-0.1,0.3-0.1,0.5-0.1h0.4c0,0,0,0,0,0V1.2c0,0,0-0.1-0.1-0.1h-0.2c-0.2,0-0.3,0-0.5,0c-0.5-0.1-1-0.2-1.5-0.2c0,0-0.1,0-0.1,0
	c-0.1-0.1-0.2-0.2-0.4-0.1h-0.5c-0.4,0-0.8,0-1.2,0s-1,0-1.6-0.1s-0.9-0.1-1.4-0.2c-0.3-0.1-0.5-0.1-0.8-0.1h-0.2
	c-0.3,0.1-0.7,0.1-1-0.1c-0.2-0.1-0.4-0.1-0.5,0.1c0,0-0.1,0-0.1,0h-0.1c-0.2-0.1-0.4-0.1-0.6,0h-0.1h-0.1l-0.1,0
	c-0.1,0-0.1,0-0.2,0c-0.2,0-0.5,0-0.7,0c-0.3-0.1-0.7,0-1,0.1h-0.9h-1.8h-0.2c-0.5,0-1-0.1-1.5-0.3c-0.2-0.1-0.4-0.1-0.6-0.1L10.4,0
	H9.2C9,0,8.8,0,8.6,0H7.9c-0.3,0-0.7,0-1,0C6,0.1,5,0.1,4.1,0.1H4c-0.9,0-1.7,0.1-2.6,0.3c-0.1,0-0.2,0-0.2,0.2c0,0,0,0,0,0.1
	L1.1,0.7C1,0.7,0.9,0.8,0.8,0.8l-0.5,0H0.1c0,0-0.1,0-0.1,0.1C0,0.9,0,1,0,1c0,0,0,0,0,0l0.3,0.2l0.5,0.3c0.5,0.3,1.1,0.4,1.6,0.4
	h0.6c0.2,0,0.4,0,0.6,0L6.2,2h0.9h0.1c0.6,0.1,1.3,0.2,1.9,0.1l0.9,0c0.4,0,0.9-0.1,1.3-0.1h4.9c1,0,2.1,0,3.2,0.1
	c0.4,0,0.7,0.1,1.1,0.1L21,2.3c0.1,0,0.2,0,0.3,0L21.8,2.2z"/>
</svg>
